<?xml version="1.0" encoding="UTF-8" standalone="no"?>
<!-- Created with Inkscape (http://www.inkscape.org/) -->

<svg
   xmlns:dc="http://purl.org/dc/elements/1.1/"
   xmlns:cc="http://creativecommons.org/ns#"
   xmlns:rdf="http://www.w3.org/1999/02/22-rdf-syntax-ns#"
   xmlns:svg="http://www.w3.org/2000/svg"
   xmlns="http://www.w3.org/2000/svg"
   xmlns:xlink="http://www.w3.org/1999/xlink"
   xmlns:sodipodi="http://sodipodi.sourceforge.net/DTD/sodipodi-0.dtd"
   xmlns:inkscape="http://www.inkscape.org/namespaces/inkscape"
   id="svg11037"
   height="96"
   width="96"
   version="1.1"
   inkscape:version="0.48.5 r10040"
   sodipodi:docname="apollo.svg">
  <sodipodi:namedview
     pagecolor="#ffffff"
     bordercolor="#666666"
     borderopacity="1"
     objecttolerance="10"
     gridtolerance="10"
     guidetolerance="10"
     inkscape:pageopacity="0"
     inkscape:pageshadow="2"
     inkscape:window-width="1366"
     inkscape:window-height="713"
     id="namedview15"
     showgrid="false"
     inkscape:zoom="13.906433"
     inkscape:cx="35.872842"
     inkscape:cy="33.491031"
     inkscape:window-x="0"
     inkscape:window-y="24"
     inkscape:window-maximized="1"
     inkscape:current-layer="layer3"
     showguides="true"
     inkscape:guide-bbox="true">
    <inkscape:grid
       type="xygrid"
       id="grid3025"
       empspacing="5"
       visible="true"
       enabled="true"
       snapvisiblegridlinesonly="true" />
  </sodipodi:namedview>
  <defs
     id="defs11039">
    <linearGradient
       id="linearGradient11642"
       y2="1046.1"
       gradientUnits="userSpaceOnUse"
       y1="962.62"
       gradientTransform="matrix(1.15 0 0 1.15 -7.1999 -150.65)"
       x2="48"
       x1="48">
      <stop
         id="stop3624"
         style="stop-color:#d6d6d6"
         offset="0" />
      <stop
         id="stop3626"
         style="stop-color:#eaeaea"
         offset="1" />
    </linearGradient>
    <clipPath
       id="clipPath3009"
       clipPathUnits="userSpaceOnUse">
      <path
         id="path3011"
         style="opacity:.15;fill:#fff"
         d="m-2 956.36h-96v33.562l96 25.687v-59.25z" />
    </clipPath>
    <linearGradient
       id="linearGradient5365-4"
       y2="938.90002"
       spreadMethod="reflect"
       gradientUnits="userSpaceOnUse"
       x2="180.72"
       gradientTransform="matrix(0.76488,0,0,0.76488,-68.262,-699.39)"
       y1="938.90002"
       x1="145.69">
      <stop
         id="stop4269-4"
         style="stop-color:#6e6e6e"
         offset="0" />
      <stop
         id="stop4271-7"
         style="stop-color:#333"
         offset="1" />
    </linearGradient>
    <radialGradient
       id="radialGradient5342-3"
       xlink:href="#linearGradient4589-1"
       gradientUnits="userSpaceOnUse"
       cy="973.69"
       cx="120.46"
       gradientTransform="matrix(0.76488,0,0,2.6006,-68.262,-2489.9)"
       r="5" />
    <linearGradient
       id="linearGradient4589-1">
      <stop
         id="stop4591-7"
         style="stop-color:#6e6e6e"
         offset="0" />
      <stop
         id="stop4593-8"
         style="stop-color:#333"
         offset="1" />
    </linearGradient>
    <radialGradient
       id="radialGradient4935-9"
       xlink:href="#linearGradient4589-1"
       gradientUnits="userSpaceOnUse"
       cy="973.21002"
       cx="123.25"
       gradientTransform="matrix(-0.76488,0,0,2.6006,164.26,-2489.9)"
       r="5" />
    <linearGradient
       id="linearGradient3071">
      <stop
         id="stop3073"
         style="stop-color:#6e6e6e"
         offset="0" />
      <stop
         id="stop3075"
         style="stop-color:#333"
         offset="1" />
    </linearGradient>
  </defs>
  <metadata
     id="metadata11042">
    <rdf:RDF>
      <cc:Work
         rdf:about="">
        <dc:format>image/svg+xml</dc:format>
        <dc:type
           rdf:resource="http://purl.org/dc/dcmitype/StillImage" />
        <dc:title />
      </cc:Work>
    </rdf:RDF>
  </metadata>
  <g
     id="layer1"
     transform="translate(0 -956.36)">
    <rect
       id="rect3867"
       style="fill:#16a085"
       rx="25"
       ry="25"
       height="92"
       width="92"
       y="958.36"
       x="2" />
    <g
       transform="translate(3.1214817e-7,956.36)"
       id="layer3"
       style="fill:#f1c40f">
      <path
         inkscape:connector-curvature="0"
         id="path3777"
         style="opacity:0.05000000000000000;color:#000000;fill:#f1c40f"
         d="m 47.781,13.938 c -2.2193,0.02213 -4.5441,0.3297 -6.8125,0.9375 -14.281,3.8265 -22.768,18.496 -19.156,32.781 0.0158,0.06248 0.01499,0.12504 0.03125,0.1875 v 0.0625 c 0.0058,0.02191 0.02543,0.04059 0.03125,0.0625 0.0027,0.01013 -0.0027,0.02112 0,0.03125 0.0044,0.0176 -0.0056,0.01162 0,0.03125 0.01566,0.05457 0.01736,0.05925 0.03125,0.09375 8.92e-4,0.0028 0.03022,0.15346 0.03125,0.15625 9.95e-4,0.0017 0.03028,-0.0017 0.03125,0 0.0029,0.005 -0.0026,0.0266 0,0.03125 C 21.98189,48.336 21.995,48.33587 22,48.344 c 0.0049,0.01351 -0.0034,0.02194 0,0.03125 0.0038,0.01163 -0.0037,0.02009 0,0.03125 0.0019,0.0056 -0.0025,0.02393 0,0.03125 0.003,0.0083 0.06242,0.12483 0.0625,0.125 3.1e-5,6.4e-5 0.02073,0.01239 0.03125,0.03125 0.0063,0.01131 -0.0066,0.01957 0,0.03125 0.0019,0.0054 -0.0052,0.0173 0,0.03125 0.0028,0.0048 0.03055,-0.0011 0.03125,0 0.002,0.0053 -0.0037,0.02213 0,0.03125 0.0018,0.0044 0.02404,0.01687 0.03125,0.03125 0.01751,0.03492 0.01942,0.07099 0.03125,0.09375 -2.6576,1.8789 -4.1417,5.1408 -3.25,8.4688 l 2.5938,9.6562 c 1.147,4.2806 5.6012,6.8014 9.875,5.6562 l 4.625,-1.25 c 0.02999,-8.57e-4 0.04948,-0.02354 0.09375,-0.03125 h 0.03125 0.03125 c 0.0176,-0.0044 0.01162,0.0056 0.03125,0 0.05457,-0.01566 0.05925,-0.01736 0.09375,-0.03125 0.0028,-8.92e-4 0.15346,-0.03022 0.15625,-0.03125 0.0014,-5.15e-4 -0.02325,-0.02354 0,-0.03125 0.0055,-0.0018 0.01922,0.0043 0.03125,0 0.02325,-0.01314 0.02312,-0.02625 0.03125,-0.03125 0.02702,-0.0099 0.06186,2.74e-4 0.0625,0 0.0056,-0.0019 0.02393,0.0025 0.03125,0 0.0067,-0.0024 0.06765,-0.05144 0.09375,-0.0625 0.0028,-9.15e-4 0.02634,0.0016 0.03125,0 6.4e-5,-3.1e-5 0.01239,-0.02073 0.03125,-0.03125 0.03017,-0.01684 0.05812,-0.02844 0.0625,-0.03125 0.0071,-0.0046 0.02803,0.0021 0.03125,0 0.0044,-0.0018 0.01687,-0.02404 0.03125,-0.03125 0.04519,-0.02267 0.12494,-0.03121 0.125,-0.03125 5.9e-5,-3.6e-5 0.05329,-0.06387 0.09375,-0.09375 -2.6e-5,1.7e-5 0.01696,-0.02021 0.03125,-0.03125 0.0159,-0.0137 0.02529,0.0055 0.03125,0 0.01658,-0.01288 0.01977,-0.02207 0.03125,-0.03125 0.0087,-0.0085 -0.0047,-0.02656 0,-0.03125 0.0094,-0.0094 0.02354,0.0078 0.03125,0 0.0034,-0.0031 -0.0021,-0.02925 0,-0.03125 0.0031,-0.0032 0.02971,0.0015 0.03125,0 0.0052,-0.0034 0.02553,0.0039 0.03125,0 0.0057,-0.0039 0.09347,-0.06226 0.09375,-0.0625 0.0011,-9.56e-4 0.07826,-0.07819 0.09375,-0.09375 0.0011,-0.001 0.04698,-0.04697 0.0625,-0.0625 0.01552,-0.01553 -0.04612,0.01677 0.03125,-0.0625 -0.09939,0.10184 0.0157,0.01551 0.03125,0 0.01555,-0.01551 0.06152,-0.09264 0.0625,-0.09375 4.1e-5,-4.6e-5 0.02038,-0.01745 0.03125,-0.03125 0.01087,-0.0138 0.01985,-0.0167 0.03125,-0.03125 0.02078,-0.02341 0.03139,-0.06268 0.03125,-0.0625 0.0078,-0.0082 0.09364,-0.0936 0.09375,-0.09375 8.7e-4,-0.0012 0.04704,-0.07054 0.0625,-0.09375 0.01546,-0.02321 -0.04788,0.05938 0.03125,-0.0625 0.0016,-0.0025 0.09226,-0.12243 0.09375,-0.125 1.72e-4,-2.96e-4 -0.0034,-0.02481 0,-0.03125 0.0048,-0.0072 0.02347,-0.01967 0.03125,-0.03125 0.0078,-0.01158 0.02392,-0.02026 0.03125,-0.03125 0.0078,-0.01566 0.05905,-0.14542 0,-0.03125 0.0026,-0.0041 0.02449,-0.0201 0.03125,-0.03125 0.0068,-0.01115 0.06246,-0.09367 0.0625,-0.09375 3.08e-4,-6.76e-4 0.02768,-0.11429 0.03125,-0.125 0.0036,-0.01071 -0.0038,-0.01962 0,-0.03125 0.0011,-0.0028 0.1305,-0.32391 0.0625,-0.125 0.0238,-0.06961 -0.0078,-0.03927 0,-0.0625 0.0078,-0.02323 0.03084,-0.09232 0.03125,-0.09375 0.0078,-0.02323 0.06216,-0.12355 0.0625,-0.125 10e-6,-4.4e-5 -0.006,-0.05568 0,-0.09375 0.0063,-0.04018 0.03052,-0.08338 0.03125,-0.09375 0.0014,-0.0202 -2.75e-4,-0.02352 0,-0.03125 5.5e-4,-0.01546 -7.2e-5,-0.02539 0,-0.03125 1.43e-4,-0.01173 8e-6,-0.02455 0,-0.03125 8.37e-4,-0.01567 -1.4e-4,-0.02581 0,-0.03125 -7.8e-5,-0.01163 1.7e-5,-0.02609 0,-0.03125 0.0025,-0.03213 0.03115,-0.08776 0.03125,-0.09375 4.4e-5,-0.0075 0,-0.02441 0,-0.03125 -9.2e-4,0.01085 -0.03131,7.4e-4 -0.03125,0 1.23e-4,-0.0015 0.03129,-0.13299 0.03125,-0.15625 5e-5,-0.0015 7e-6,-0.07049 0,-0.09375 -7e-6,-0.02326 0.0024,0.09288 0,-0.0625 -3.4e-5,-0.0022 5.98e-4,-0.05315 0,-0.09375 -6.8e-5,0.02326 -9.6e-5,-0.03273 0,-0.03125 1.2e-5,-0.0058 10e-7,-0.02571 0,-0.03125 -1.1e-5,-0.0017 5.82e-4,-0.02098 0,-0.03125 5.3e-5,-0.01163 -5e-6,-0.01918 0,-0.03125 3e-6,-0.006 8.3e-5,-0.02215 0,-0.03125 -4.1e-5,-0.0045 2.85e-4,-0.02009 0,-0.03125 -2.85e-4,-0.01116 -0.03122,-0.12482 -0.03125,-0.125 -3e-5,-1.83e-4 -0.02816,-0.14619 -0.03125,-0.15625 -0.0031,-0.01006 0.0013,-0.02708 0,-0.03125 -0.0039,-0.01164 -0.02733,-0.01964 -0.03125,-0.03125 -0.0039,-0.01161 0.0023,-0.02444 0,-0.03125 -0.01067,-0.04307 -0.03087,-0.09231 -0.03125,-0.09375 l -5.092,-19.06 V 48.47145 L 33.22055,48.3777 v -0.03125 c -0.0013,-0.02899 -0.0147,-0.02683 -0.03125,-0.09375 -0.01045,-0.04226 0.01943,7.63e-4 0,-0.0625 0.069,0.226 -0.03,-0.184 -0.032,-0.188 -0.002,-0.005 -0.091,-0.245 -0.094,-0.25 0,-0.001 -0.083,-0.109 -0.093,-0.125 -0.01,-0.016 -0.02,-0.043 -0.031,-0.063 -0.012,-0.019 -0.023,-0.048 -0.032,-0.062 -0.054,-0.094 -0.022,-0.016 -0.031,-0.031 -0.0089,-0.01498 -0.01965,-0.04313 -0.03125,-0.0625 -0.0232,-0.03873 -0.06099,-0.12283 -0.0625,-0.125 -9.4e-5,-1.35e-4 -0.08349,-0.11359 -0.09375,-0.125 -0.01026,-0.01141 -0.02704,0.0044 -0.03125,0 -0.0084,-0.0089 0.0041,-0.02709 0,-0.03125 -0.0082,-0.0083 -0.02421,0.007 -0.03125,0 -0.01408,-0.01409 -0.01569,-0.04707 -0.03125,-0.0625 -0.0017,-0.002 -0.0081,0.03113 -0.03125,0 -0.011,-0.016 -0.02,-0.049 -0.031,-0.063 -0.003,-0.004 -0.024,-0.023 -0.031,-0.031 -0.006,-0.009 -0.062,-0.094 -0.062,-0.094 0.001,0.002 -0.184,-0.184 -0.188,-0.187 -0.004,-0.004 -0.246,-0.185 -0.25,-0.188 -0.0022,-0.0015 -0.08627,-0.0393 -0.125,-0.0625 -0.03873,-0.0232 0.0433,0.01688 -0.09375,-0.0625 0.001,-0.03397 2.6e-5,-0.08033 0,-0.09375 5e-5,-0.0015 7e-6,-0.07049 0,-0.09375 -7e-6,-0.02326 0.0024,0.09288 0,-0.0625 -3.5e-5,-0.0022 5.98e-4,-0.05315 0,-0.09375 3.4e-5,-0.01163 1e-6,-0.05142 0,-0.0625 -1.1e-5,-0.0017 5.82e-4,-0.02098 0,-0.03125 5.3e-5,-0.01163 -5e-6,-0.01918 0,-0.03125 3e-6,-0.006 8.3e-5,-0.02215 0,-0.03125 -4.1e-5,-0.0045 2.85e-4,-0.02009 0,-0.03125 -2.85e-4,-0.01116 -0.03122,-0.12482 -0.03125,-0.125 -3e-5,-1.83e-4 -0.02816,-0.14619 -0.03125,-0.15625 2.4e-5,1.09e-4 0.0034,-0.01851 0,-0.03125 -0.0039,-0.01164 -0.02733,-0.01964 -0.03125,-0.03125 -0.0039,-0.01161 0.0023,-0.02444 0,-0.03125 -0.011,-0.043 -0.031,-0.093 -0.032,-0.094 -0.39,-1.453 -0.594,-2.888 -0.594,-4.375 0,-9.3954 7.5421,-16.938 16.938,-16.938 9.3954,0 16.938,7.5421 16.938,16.938 0,1.4866 -0.2032,2.9219 -0.59375,4.375 -5e-4,0.0019 -0.0186,0.07388 -0.03125,0.125 -0.0039,0.01161 -0.02736,0.01961 -0.03125,0.03125 -0.0013,0.0042 0.0031,0.02119 0,0.03125 -0.0031,0.01006 -0.03122,0.15607 -0.03125,0.15625 -3e-5,1.83e-4 -0.03096,0.11384 -0.03125,0.125 -2.85e-4,0.01116 4.1e-5,0.0267 0,0.03125 -8.3e-5,0.0091 -3e-6,0.02522 0,0.03125 5e-6,0.01207 -5.3e-5,0.01962 0,0.03125 5.3e-5,0.01163 -1.6e-5,0.02475 0,0.03125 -10e-7,0.01108 -3.4e-5,0.05087 0,0.0625 -5.98e-4,0.0406 3.4e-5,0.09152 0,0.09375 -0.0024,0.15538 7e-6,0.03924 0,0.0625 -7e-6,0.02326 -5e-5,0.09226 0,0.09375 -4.4e-5,0.02326 0.03113,0.15477 0.03125,0.15625 6.2e-5,7.4e-4 -0.03033,0.01085 -0.03125,0 -0.0043,0.0025 0.0033,0.02935 0,0.03125 -0.0065,0.0038 -0.03116,-6.1e-5 -0.03125,0 -0.0019,0.0012 -0.0628,0.0705 -0.09375,0.09375 -0.03095,0.02325 0.02176,-0.05789 -0.09375,0.03125 0.0764,-0.05895 0.01153,0.02263 0,0.03125 -0.01153,0.0086 -0.01575,0.01966 -0.03125,0.03125 -0.031,0.02318 -0.12335,0.09227 -0.125,0.09375 -0.0017,0.0015 -0.07048,0.07045 -0.09375,0.09375 -0.01163,0.01165 -0.02218,0.02215 -0.03125,0.03125 -0.0091,0.0091 0.02995,-0.03233 -0.03125,0.03125 -0.0015,0.0016 -0.03152,3.59e-4 -0.0625,0.03125 -0.03098,0.03089 -0.12358,0.15454 -0.125,0.15625 -7.09e-4,8.54e-4 -0.05515,0.08276 -0.0625,0.09375 -0.0073,0.01099 -0.02349,0.01953 -0.03125,0.03125 -0.0013,0.0018 -0.008,0.03158 -0.03125,0.0625 -0.02328,0.03092 -0.12385,0.15435 -0.125,0.15625 -0.0023,0.0038 -0.19696,0.38977 -0.09375,0.1875 -0.001,0.002 -0.04709,0.11755 -0.0625,0.15625 -0.01541,0.0387 -0.03039,0.06045 -0.03125,0.0625 -0.0078,0.01548 -0.02414,0.01702 -0.03125,0.03125 -0.0036,0.0071 0.0042,0.02274 0,0.03125 -0.0021,0.0043 0.0043,0.02222 0,0.03125 -0.0043,0.009 -0.06241,0.09349 -0.0625,0.09375 -0.0011,0.0034 -0.04908,0.24823 -0.03125,0.1875 a 1.0504,1.0504 0 0 0 0,0.03125 1.0504,1.0504 0 0 0 -0.03125,0.15625 l -0.033,0.094 v 0.03125 l -5.0938,19.031 c -5e-4,0.0019 -0.0186,0.07388 -0.03125,0.125 -0.0039,0.01161 -0.02736,0.01961 -0.03125,0.03125 -0.0013,0.0042 0.0031,0.02119 0,0.03125 -0.0031,0.01006 -0.03122,0.15607 -0.03125,0.15625 -3e-5,1.83e-4 -0.03097,0.11384 -0.03125,0.125 -2.85e-4,0.01116 4.1e-5,0.0267 0,0.03125 -8.3e-5,0.0091 -3e-6,0.02522 0,0.03125 5e-6,0.01207 -5.3e-5,0.01962 0,0.03125 5.3e-5,0.01163 -1.6e-5,0.02475 0,0.03125 -10e-7,0.01108 -3.4e-5,0.05087 0,0.0625 -5.98e-4,0.0406 3.4e-5,0.09152 0,0.09375 -0.0024,0.15538 7e-6,0.03924 0,0.0625 -7e-6,0.02326 -5e-5,0.09226 0,0.09375 -4.4e-5,0.02326 0.03113,0.15477 0.03125,0.15625 6.2e-5,7.4e-4 -0.03033,0.01085 -0.03125,0 0,0.0068 -4.4e-5,0.02371 0,0.03125 1.28e-4,0.0078 0.03122,0.12482 0.03125,0.125 -7.8e-5,0.01163 1.6e-5,0.01785 0,0.03125 -8e-6,0.0067 -1.43e-4,0.01952 0,0.03125 7.2e-5,0.0059 -5.5e-4,0.01579 0,0.03125 2.75e-4,0.0077 -0.0014,0.01105 0,0.03125 7.29e-4,0.01037 0.02494,0.05357 0.03125,0.09375 0.006,0.03807 -1e-5,0.09371 0,0.09375 3.4e-4,0.0014 0.0547,0.10177 0.0625,0.125 4.11e-4,0.0014 0.02349,0.07052 0.03125,0.09375 0.0078,0.02323 -0.0238,-0.0071 0,0.0625 -0.068,-0.19891 0.0614,0.12224 0.0625,0.125 0.0038,0.01163 -0.0036,0.02054 0,0.03125 0.0036,0.01071 0.03094,0.12432 0.03125,0.125 3.9e-5,8.4e-5 0.05574,0.0826 0.0625,0.09375 0.0068,0.01115 0.02861,0.0271 0.03125,0.03125 0.0053,0.0083 -0.0023,0.02769 0,0.03125 0.0078,0.01566 0.06175,0.09247 0.0625,0.09375 0.0015,0.0026 0.09213,0.12251 0.09375,0.125 0.07913,0.12188 0.01579,0.03929 0.03125,0.0625 0.01546,0.02321 0.06163,0.09255 0.0625,0.09375 1.09e-4,1.51e-4 0.08595,0.08552 0.09375,0.09375 -5.4e-5,-6.7e-5 -0.0057,0.02478 0,0.03125 0.0048,0.007 0.09363,0.09361 0.09375,0.09375 9.84e-4,0.0011 0.04695,0.07824 0.0625,0.09375 0.01555,0.01551 0.13064,0.10184 0.03125,0 0.07737,0.07927 0.01573,0.04697 0.03125,0.0625 0.01552,0.01553 0.06141,0.06149 0.0625,0.0625 0.01549,0.01556 0.09261,0.09279 0.09375,0.09375 2.84e-4,2.39e-4 0.08803,0.05864 0.09375,0.0625 0.0057,0.0039 0.02609,-0.0034 0.03125,0 0.01032,0.0069 0.01963,0.02354 0.03125,0.03125 0.0024,0.0018 0.12255,0.09207 0.125,0.09375 0.04046,0.02988 0.09369,0.09371 0.09375,0.09375 6e-5,3.7e-5 0.07981,0.0086 0.125,0.03125 0.01438,0.0072 0.02685,0.02945 0.03125,0.03125 0.0091,0.0037 0.02599,-0.002 0.03125,0 0.0044,0.0028 0.03233,0.01441 0.0625,0.03125 0.01886,0.01052 0.03119,0.03122 0.03125,0.03125 0.0049,0.0016 0.02848,-9.15e-4 0.03125,0 0.0261,0.01106 0.08709,0.06013 0.09375,0.0625 0.0073,0.0025 0.02567,-0.0019 0.03125,0 0.0014,5.83e-4 0.10175,0.02354 0.125,0.03125 0.02325,0.0077 -0.0014,0.03074 0,0.03125 0.0028,0.001 0.15342,0.03036 0.15625,0.03125 0.0345,0.01389 0.03918,0.01559 0.09375,0.03125 0.01963,0.0056 0.01365,-0.0044 0.03125,0 0.05573,0.01407 0.05529,0.02653 0.09375,0.03125 0.02429,0.003 0.04356,-5.41e-4 0.0625,0 0.03945,0.0011 0.10082,0.03405 0.125,0.03125 l 4.5,1.2188 c 4.2738,1.1452 8.728,-1.3757 9.875,-5.6562 l 2.5938,-9.6562 c 0.90081,-3.3619 -0.60104,-6.6952 -3.3125,-8.5625 0.0043,-0.0087 -0.0013,-0.02811 0,-0.03125 0.0019,-0.0039 -0.0045,-0.02189 0,-0.03125 0.0018,-0.0027 0.02033,-0.01178 0.03125,-0.03125 0.0037,-0.01076 -0.0021,-0.02479 0,-0.03125 0.01052,-0.01886 0.03122,-0.03119 0.03125,-0.03125 0.0016,-0.0049 -9.15e-4,-0.02848 0,-0.03125 0.01106,-0.0261 0.06013,-0.08709 0.0625,-0.09375 0.0025,-0.0073 -0.0019,-0.02567 0,-0.03125 -5.83e-4,0.0014 0.0077,-0.05452 0,-0.03125 0.0034,-0.0093 -0.0049,-0.01774 0,-0.03125 0.005,-0.0081 0.01811,-0.008 0.03125,-0.03125 0.0026,-0.0046 -0.0029,-0.02628 0,-0.03125 0.0077,-0.02325 0.03074,0.0014 0.03125,0 0.01593,-0.02727 0.009,-0.10104 0.03125,-0.15625 0.01389,-0.0345 0.01559,-0.03918 0.03125,-0.09375 0.0056,-0.01963 -0.0044,-0.01365 0,-0.03125 0.01407,-0.05573 0.02653,-0.05529 0.03125,-0.09375 h -0.03125 c 0.0056,-0.02135 0.02569,-0.04114 0.03125,-0.0625 0.0011,-0.03945 0.03405,-0.10082 0.03125,-0.125 0,0 -0.02949,-3e-6 -0.03125,0 0.0055,-0.02138 0.02584,-0.04111 0.03125,-0.0625 5e-6,7.5e-5 6.97e-4,-0.02352 0,-0.03125 1.125,-4.471 1.132,-9.198 -0.063,-13.656 -3.256,-12.151 -14.284,-20.152 -26.344,-20.031 z M 23.219,49.813 c 0.02889,0.01628 0.05708,0.02867 0.0625,0.03125 0.01083,0.0052 -0.0032,0.02978 0,0.03125 -0.0041,-0.0019 -0.0093,0.0014 -0.0625,-0.03125 V 49.813 z" />
      <path
         inkscape:connector-curvature="0"
         id="path3748"
         style="color:#000000;fill:#f1c40f"
         d="m 47.781,16 c -1.9794,0.01974 -3.9995,0.27647 -6,0.8125 -12.803,3.431 -20.399,16.604 -16.969,29.407 l 3.907,-1.031 C 28.273,43.5285 28,41.8005 28,40.0005 c 0,-11.046 8.954,-20 20,-20 11.046,0 20,8.9543 20,20 0,1.8003 -0.27274,3.5281 -0.71875,5.1875 l 3.9062,1.0312 c 1.0904,-4.0693 1.0904,-8.3682 0,-12.438 -2.894,-10.802 -12.717,-17.888 -23.406,-17.781 z M 30.25,48.031 25.4062,49.3435 c -2.6756,0.71693 -4.2482,3.4494 -3.5312,6.125 l 2.5938,9.6562 c 0.71693,2.6756 3.4494,4.2482 6.125,3.5312 l 4.812,-1.281 -5.156,-19.344 z m 35.625,0 -5.1562,19.344 4.8125,1.2812 c 2.6756,0.71693 5.4081,-0.85564 6.125,-3.5312 l 2.593,-9.656 c 0.71693,-2.6756 -0.85564,-5.4081 -3.5312,-6.125 l -4.844,-1.313 z" />
    </g>
  </g>
</svg>
