<?xml version="1.0" encoding="UTF-8" standalone="no"?>
<!-- Created with Inkscape (http://www.inkscape.org/) -->

<svg
   xmlns:dc="http://purl.org/dc/elements/1.1/"
   xmlns:cc="http://creativecommons.org/ns#"
   xmlns:rdf="http://www.w3.org/1999/02/22-rdf-syntax-ns#"
   xmlns:svg="http://www.w3.org/2000/svg"
   xmlns="http://www.w3.org/2000/svg"
   xmlns:xlink="http://www.w3.org/1999/xlink"
   xmlns:sodipodi="http://sodipodi.sourceforge.net/DTD/sodipodi-0.dtd"
   xmlns:inkscape="http://www.inkscape.org/namespaces/inkscape"
   id="svg11037"
   height="96"
   width="96"
   version="1.1"
   inkscape:version="0.48.5 r10040"
   sodipodi:docname="browser.svg">
  <sodipodi:namedview
     pagecolor="#ffffff"
     bordercolor="#666666"
     borderopacity="1"
     objecttolerance="10"
     gridtolerance="10"
     guidetolerance="10"
     inkscape:pageopacity="0"
     inkscape:pageshadow="2"
     inkscape:window-width="1366"
     inkscape:window-height="713"
     id="namedview44"
     showgrid="false"
     inkscape:zoom="4.9166667"
     inkscape:cx="61.897996"
     inkscape:cy="46.575407"
     inkscape:window-x="0"
     inkscape:window-y="24"
     inkscape:window-maximized="1"
     inkscape:current-layer="layer1" />
  <defs
     id="defs11039">
    <linearGradient
       id="linearGradient3345"
       y2="5.9877"
       gradientUnits="userSpaceOnUse"
       x2="48"
       y1="90"
       x1="48">
      <stop
         id="stop3702-0-2"
         style="stop-color:#156ab9"
         offset="0" />
      <stop
         id="stop3704-4-9"
         style="stop-color:#5ba1e4"
         offset="1" />
    </linearGradient>
    <radialGradient
       id="radialGradient5232-9"
       gradientUnits="userSpaceOnUse"
       cy="61.949"
       cx="63.98"
       gradientTransform="matrix(1.09 0 0 .84045 -21.739 -5.4878)"
       r="58.02">
      <stop
         id="stop4134"
         style="stop-color:#7bb8f0"
         offset="0" />
      <stop
         id="stop4136"
         style="stop-color:#b5d5f2;stop-opacity:.12214"
         offset="1" />
    </radialGradient>
    <linearGradient
       id="linearGradient4578"
       y2="40"
       gradientUnits="userSpaceOnUse"
       x2="69"
       y1="40"
       x1="59">
      <stop
         id="stop5934-3-2-9"
         style="stop-color:#ff7c53"
         offset="0" />
      <stop
         id="stop5940-1-4-5"
         style="stop-color:#f21919"
         offset=".5" />
      <stop
         id="stop5942-5-4-7"
         style="stop-color:#db1414"
         offset=".5" />
      <stop
         id="stop5936-2-5-0"
         style="stop-color:#9b1818"
         offset="1" />
    </linearGradient>
    <linearGradient
       id="linearGradient4580"
       y2="88"
       gradientUnits="userSpaceOnUse"
       x2="69"
       y1="88"
       x1="59">
      <stop
         id="stop5946-9-5-0"
         style="stop-color:#f0f0f0"
         offset="0" />
      <stop
         id="stop5952-4-9-7"
         style="stop-color:#e6e6e6"
         offset=".5" />
      <stop
         id="stop5954-4-7-2"
         style="stop-color:#d2d2d2"
         offset=".5" />
      <stop
         id="stop5948-6-2-1"
         style="stop-color:#bebebe"
         offset="1" />
    </linearGradient>
    <radialGradient
       id="radialGradient4582"
       gradientUnits="userSpaceOnUse"
       cy="63.28"
       cx="63.335"
       gradientTransform="matrix(0.644 -.0000014509 .0000014509 0.644 22.699 22.756)"
       r="1.7404">
      <stop
         id="stop5962-7-7-5"
         style="stop-color:#c1c1c1"
         offset="0" />
      <stop
         id="stop5964-4-1-8"
         style="stop-color:#3f3f3f"
         offset="1" />
    </radialGradient>
    <linearGradient
       id="linearGradient3078"
       y2="1046.1"
       gradientUnits="userSpaceOnUse"
       x2="48"
       gradientTransform="matrix(1.05 0 0 1.05 -2.4 -1006.6)"
       y1="962.62"
       x1="48">
      <stop
         id="stop3797"
         style="stop-color:#13a6fd"
         offset="0" />
      <stop
         id="stop3799"
         style="stop-color:#2975b6"
         offset="1" />
    </linearGradient>
    <clipPath
       id="clipPath3009"
       clipPathUnits="userSpaceOnUse">
      <path
         id="path3011"
         style="opacity:.15;fill:#fff"
         d="m-2 956.36h-96v33.562l96 25.687v-59.25z" />
    </clipPath>
    <linearGradient
       id="linearGradient11642"
       y2="1046.1"
       gradientUnits="userSpaceOnUse"
       y1="962.62"
       gradientTransform="matrix(1.15,0,0,1.15,-7.1999,-150.65)"
       x2="48"
       x1="48">
      <stop
         id="stop3624"
         style="stop-color:#d6d6d6"
         offset="0" />
      <stop
         id="stop3626"
         style="stop-color:#eaeaea"
         offset="1" />
    </linearGradient>
    <linearGradient
       inkscape:collect="always"
       xlink:href="#linearGradient3345"
       id="linearGradient3245"
       gradientUnits="userSpaceOnUse"
       x1="48"
       y1="90"
       x2="48"
       y2="5.9877" />
    <radialGradient
       inkscape:collect="always"
       xlink:href="#radialGradient5232-9"
       id="radialGradient3247"
       gradientUnits="userSpaceOnUse"
       gradientTransform="matrix(1.09,0,0,0.84045,-27.496017,-15.144731)"
       cx="63.98"
       cy="61.949"
       r="58.02" />
    <linearGradient
       inkscape:collect="always"
       xlink:href="#linearGradient3345"
       id="linearGradient4017"
       gradientUnits="userSpaceOnUse"
       x1="48"
       y1="90"
       x2="48"
       y2="5.9877" />
    <radialGradient
       inkscape:collect="always"
       xlink:href="#radialGradient5232-9"
       id="radialGradient4019"
       gradientUnits="userSpaceOnUse"
       gradientTransform="matrix(1.09,0,0,0.84045,-77.266355,8.4404667)"
       cx="63.98"
       cy="61.949"
       r="58.02" />
    <radialGradient
       inkscape:collect="always"
       xlink:href="#radialGradient5232-9-4"
       id="radialGradient4019-2"
       gradientUnits="userSpaceOnUse"
       gradientTransform="matrix(1.09,0,0,0.84045,-77.266355,8.4404667)"
       cx="63.98"
       cy="61.949001"
       r="58.02" />
    <radialGradient
       id="radialGradient5232-9-4"
       gradientUnits="userSpaceOnUse"
       cy="61.949001"
       cx="63.98"
       gradientTransform="matrix(1.09,0,0,0.84045,-21.739,-5.4878)"
       r="58.02">
      <stop
         id="stop4134-9"
         style="stop-color:#7bb8f0"
         offset="0" />
      <stop
         id="stop4136-6"
         style="stop-color:#b5d5f2;stop-opacity:.12214"
         offset="1" />
    </radialGradient>
    <radialGradient
       r="58.02"
       cy="61.949001"
       cx="63.98"
       gradientTransform="matrix(1.193768,0,0,0.92046084,-28.380205,946.8977)"
       gradientUnits="userSpaceOnUse"
       id="radialGradient4036"
       xlink:href="#radialGradient5232-9-4"
       inkscape:collect="always" />
    <radialGradient
       inkscape:collect="always"
       xlink:href="#radialGradient5232-9-4"
       id="radialGradient4061"
       gradientUnits="userSpaceOnUse"
       gradientTransform="matrix(1.193768,0,0,0.92046084,-28.380205,944.8977)"
       cx="63.98"
       cy="61.949001"
       r="58.02" />
    <clipPath
       clipPathUnits="userSpaceOnUse"
       id="clipPath4063">
      <path
         id="path4065"
         d="m 35.155633,957.5847 c 1.807189,2.4265 0.123309,6.4785 2.849163,6.4383 1.327273,1.8763 -2.645346,0.5597 0.222982,2.0058 1.649481,1.2989 -1.745091,2.041 0.297654,3.2066 -2.354352,1.2147 0.381611,6.3534 2.130273,7.6395 2.878186,2.4227 1.272842,-5.1293 4.484297,-5.5221 1.745091,-1.992 4.809899,-3.2706 6.986609,-5.2745 -2.127207,-0.1727 -3.369383,-1.4966 -1.354763,-2.3167 3.70769,3.7989 0.929716,-1.7991 -1.122689,-2.6854 1.986036,-0.6317 3.91753,-0.1691 3.641978,-1.8076 2.098732,-1.5353 -2.017687,-2.031 -3.487007,-1.6839 h -14.6483 z m -30.4487497,1.5847 c -2.6829118,0.7644 -2.8700808,7.1754 -0.17337,3.616 0.661829,-1.4623 3.720722,-3.224 0.17337,-3.616 z m 12.5367537,0.2229 c -1.546751,2.425 0.224417,4.3693 1.511266,1.4115 0.910889,-1.2352 -0.676757,-1.3662 -1.511266,-1.4115 z m 3.864961,0.5448 c -2.988582,1.385 -0.736632,4.6146 -0.662662,5.3329 3.148262,1.089 4.899049,-0.712 6.090079,2.366 2.995591,1.7263 -0.05892,4.7257 -1.183364,5.5069 2.025353,-1.7637 5.91868,4.7951 4.898063,1.3299 -1.217643,-0.8889 3.269391,1.4281 0.941456,-1.461 -2.142321,-3.4511 0.170052,-1.545 1.073241,-0.7395 3.071927,-2.7542 -3.475727,-3.0872 -1.84125,-5.9217 -1.433617,-1.1598 -3.311885,-4.6732 -5.848368,-3.9865 -1.69756,2.1959 -0.234373,-4.7834 -2.724858,-1.291 -0.129113,1.9522 -0.04698,4.4294 -0.772893,1.0474 -0.486346,-0.5921 0.836732,-1.9685 0.0299,-2.183 z m -6.094679,0.025 c -2.006406,0.6687 -1.899077,3.3788 0.568409,3.669 0.844399,-0.9627 0.335131,-3.4865 -0.568409,-3.6689 z m -7.8295837,0.8667 c -2.605591,0.6173 -1.542042,2.7179 -0.744265,3.3095 -3.2252548,0.8078 4.9236897,1.0324 0.868143,1.544 -3.3740918,1.3473 3.2491297,2.9347 4.3356767,1.3373 4.166579,1.0188 0.149944,-3.3349 -0.215798,-5.695 -1.7663377,-1.8953 -0.06971,4.3694 -1.6667847,0.2019 -0.557226,1.2376 -2.328942,0.1824 -2.577005,-0.6976 z m 82.7982147,0.2724 c -3.496317,1.3681 2.173096,6.5312 0.764066,1.8341 -0.140372,-0.5671 0.315626,-2.0657 -0.764066,-1.8341 z m -73.011508,2.0798 c -2.512499,2.3608 3.193603,4.3131 -0.721617,6.072 -0.587049,-2.1925 -1.59713,1.097 -3.837033,-0.6737 -3.8506127,1.6031 -5.8197827,-0.835 -9.0436135,-2.5062 -1.936313,-0.241 -1.208881,1.8396 -1.337129,3.7877 v 16.152 c 1.898529,1.9973 0.740716,0.8812 0,0.3304 1.04205,3.5484 -0.459513,8.73557 3.6480008,10.7996 0.698256,1.295 3.628288,6.8123 3.763327,5.1615 -1.468883,-1.5381 -2.976097,-6.1492 -0.490541,-2.0394 2.2263227,3.9066 5.2293607,6.4404 9.6164037,7.37 2.398597,0.8158 4.371162,3.62 6.480408,3.0031 1.192673,3.1438 -3.534649,6.1628 0.158705,9.0951 1.9281,2.9684 5.165182,4.9155 3.412643,9.0829 -1.225638,4.0702 -0.700851,8.5052 -1.760862,12.298 -0.328987,2.3084 3.217697,8.1672 2.910494,3.4756 1.035588,-3.2603 1.008285,-6.8477 3.447251,-9.1566 3.337184,0.026 0.637812,-3.588 3.950387,-3.1159 2.021301,-2.6491 2.606795,-5.8094 6.018014,-6.8614 0.407469,-3.2156 5.671822,-8.1405 0.233431,-9.3925 -1.478082,-0.7285 -5.283792,-0.9904 -4.992907,-1.3499 0.58925,-3.1907 -4.921281,-4.0991 -7.265776,-5.4046 -3.078388,-2.1848 -7.703856,3.6294 -8.788432,-1.3803 -0.647132,-1.5763 -3.013224,-1.6019 -1.9258,-4.0341 -1.959751,1.9488 -5.792841,1.3565 -4.78931,-2.407 1.524081,-3.1699 7.37683,-3.3198 8.374228,0.4929 -1.384771,-4.2049 2.676559,-7.47823 4.931138,-10.4697 0.459064,-1.4299 3.186704,-2.6583 2.248117,-0.758 1.599211,-0.058 4.022998,-2.9431 1.182159,-1.6113 -0.04019,-2.6315 -2.489389,-1.8831 -3.283409,-1.5095 1.471729,-2.3355 9.029924,-1.0586 5.864905,-4.8762 -2.452481,-0.9936 -2.248446,-6.7918 -4.729074,-3.5616 0.208746,-1.9902 -5.048872,-5.8862 -4.934095,-2.5488 0.641777,2.9864 0.11734,6.4267 -1.248418,8.3841 -0.285026,-4.376 -7.749307,-3.4088 -6.789583,-8.0719 1.390356,-2.2225 3.014976,-5.2959 3.169728,-5.0194 2.49158,-0.9512 4.495358,-3.718 1.607534,-5.5369 -0.154335,1.5853 -2.171781,4.856 -1.887796,0.9001 -1.868192,2.2147 -1.441502,-3.5241 -3.191194,-4.1193 z m 59.63364,1.5353 c -4.37631,1.0703 -6.111326,5.2498 -8.276208,8.7114 -3.191303,1.4387 -3.069736,7.617 0.49548,5.6437 0.954226,1.6663 -0.667536,4.2928 2.111874,2.114 2.241874,-2.9664 0.392016,-7.7641 4.207101,-9.6345 0.277896,1.4544 -3.519206,6.8851 0.916672,5.9926 4.010184,0.1512 -2.915204,0.3995 -0.964861,2.9607 -2.026448,-1.2022 -0.973457,3.2832 -3.61854,2.2395 -2.291487,1.2463 -3.794102,-0.5787 -3.269172,-2.5779 -1.8027,1.0515 0.566985,4.0179 -2.562331,4.1962 -0.700983,2.4888 -6.465403,2.1137 -3.187251,4.648 1.455411,3.7714 -5.422883,0.2364 -3.470141,4.7623 1.670618,4.4755 5.171972,-1.4829 6.592447,-2.6341 2.740738,-2.1257 6.801959,3.62437 4.335678,3.83817 2.76549,-0.371 2.19719,-3.00067 -0.01851,-4.01877 -1.196725,-3.1033 3.788297,1.5219 3.511869,3.07777 1.758891,3.29323 1.034547,-3.37167 2.824301,-0.42087 -0.208964,3.1125 7.200064,0.73177 3.662787,4.6987 -3.041261,0.6125 -6.034661,-0.7839 -8.652956,0.1105 -2.43693,-0.022 -2.314705,-2.62503 -3.201927,-3.27703 -3.099854,0.2518 -6.930316,0.2234 -9.005611,2.72733 -2.244065,3.0786 -5.480161,7.3822 -3.034251,11.3135 2.447662,5.8252 8.517589,0.3022 12.006678,3.7424 1.037077,1.4344 -0.898722,3.1395 1.420146,4.6933 0.872567,3.3097 -0.990587,6.4523 1.152479,9.6162 1.108123,2.9754 1.795908,7.429 5.920432,4.7101 4.365248,-2.6266 3.202584,-7.4685 6.804368,-10.1503 -2.850039,-5.515 3.486678,-7.9331 5.067709,-12.4097 -3.454261,0.5056 -6.531554,-2.9378 -7.366096,-6.4037 -1.45103,-1.6834 -1.077326,-4.1658 0.543581,-1.0032 2.227965,2.1586 2.276044,8.5636 6.397391,5.2686 1.884182,-0.788 7.029651,-3.7938 2.92977,-5.1617 -2.642718,1.9139 -5.558359,-5.7189 -1.677627,-1.2917 2.821235,1.1969 4.796976,1.9099 4.796976,-2.0582 v -32.2887 c -0.878789,0.898 -3.136434,2.5564 -4.27599,1.4544 -1.960846,0.273 -4.549351,4.0877 -3.933082,0.4001 -1.70435,-0.1128 -0.305101,3.3064 -2.64666,3.402 -0.235786,1.7579 -2.365523,0.3255 -1.565479,1.9949 -1.643457,-1.1656 -3.034471,-4.846 0.20386,-2.536 4.809023,-1.4426 -3.171261,-4.6966 -3.787201,-5.483 1.035457,-0.2481 -1.126523,-1.327 -1.3874,-0.9658 z m -39.690048,0.9657 c -1.600635,1.3335 3.043013,1.5846 0,0 z m -21.380495,0.7181 c -1.790214,1.8725 2.851134,1.7214 0,0 z m 10.380744,1.8573 c -1.355748,2.2206 2.003121,0.8198 0,0 z m 29.681015,2.6248 c -1.587164,1.827 -3.682063,-0.4808 -3.716233,1.0896 0.287654,0.4745 1.43986,3.8611 3.963967,1.362 1.354762,-0.5711 0.821345,-2.0108 -0.247756,-2.4515 z m -33.793491,1.0896 c -3.010486,2.6288 5.112722,2.8709 0.637757,0.3015 l -0.637757,-0.3015 z m 39.714142,7.2802 c -2.16751,1.4133 1.039816,4.4146 -0.0472,5.8244 -1.358158,2.3661 5.04701,-0.1667 1.625934,-2.0544 -0.243759,-1.6219 -2.004216,-3.6007 -1.578731,-3.77 z m -1.461764,2.8478 c -3.019904,0.8536 -0.68554,5.2611 0.384054,1.1099 0.06013,-0.2406 0.141675,-1.1179 -0.384054,-1.1099 z m -24.18092,3.1943 c -2.809407,1.9155 -0.43636,3.8274 1.622648,2.9656 -0.422703,-1.1556 -1.603591,-1.8838 -1.622648,-2.9656 z m 53.067916,3.2192 c 1.401856,0.7073 -2.568791,1.9157 -0.05454,3.1606 1.463187,1.7204 0.911546,5.4136 -1.466692,2.79977 0.441848,-2.91837 -3.22383,-5.09787 1.521233,-5.96037 z m -7.209592,0.025 c -0.190192,1.8748 4.045669,4.7893 -0.520264,3.8382 -2.414697,0.2832 -6.031266,-0.074 -2.989239,-3.0822 0.961203,-0.577 3.485036,1.9906 2.171672,-0.4094 0.465603,-0.03 0.899236,-0.2054 1.337897,-0.3466 z m -13.947372,4.0599 c -1.761192,1.1345 1.217862,2.00437 0,0 z m -44.223081,10.5738 c -0.296919,0.9904 5.570187,1.9941 1.521562,0.4073 l -0.603532,-0.2124 -0.918019,-0.1949 z m 4.558661,1.4114 c -1.779591,1.8065 3.66651,0.5397 0,0 z m 59.509882,16.566 c -3.866823,0.1 -3.352736,10.0726 -0.657262,4.1716 0.255619,-1.2806 1.280179,-2.9707 0.657262,-4.1716 z"
         style="opacity:0.8;fill:url(#radialGradient4067)"
         inkscape:connector-curvature="0" />
    </clipPath>
    <radialGradient
       inkscape:collect="always"
       xlink:href="#radialGradient5232-9-4"
       id="radialGradient4067"
       gradientUnits="userSpaceOnUse"
       gradientTransform="matrix(1.193768,0,0,0.92046084,-28.380205,944.8977)"
       cx="63.98"
       cy="61.949001"
       r="58.02" />
  </defs>
  <metadata
     id="metadata11042">
    <rdf:RDF>
      <cc:Work
         rdf:about="">
        <dc:format>image/svg+xml</dc:format>
        <dc:type
           rdf:resource="http://purl.org/dc/dcmitype/StillImage" />
        <dc:title></dc:title>
      </cc:Work>
    </rdf:RDF>
  </metadata>
  <g
     id="layer1"
     transform="translate(0 -956.36)">
    <rect
       id="rect3867"
       style="fill:#2980b9"
       rx="25"
       ry="25"
       height="92"
       width="92"
       y="958.35999"
       x="2" />
    <rect
       x="1.9998"
       y="958.36121"
       width="91.996803"
       height="91.996803"
       ry="24.999035"
       rx="24.999035"
       style="fill:#ecf0f1;fill-opacity:1"
       id="rect3076"
       clip-path="url(#clipPath4063)" />
  </g>
</svg>
