<?xml version="1.0" encoding="UTF-8" standalone="no"?>
<!-- Created with Inkscape (http://www.inkscape.org/) -->

<svg
   xmlns:osb="http://www.openswatchbook.org/uri/2009/osb"
   xmlns:dc="http://purl.org/dc/elements/1.1/"
   xmlns:cc="http://creativecommons.org/ns#"
   xmlns:rdf="http://www.w3.org/1999/02/22-rdf-syntax-ns#"
   xmlns:svg="http://www.w3.org/2000/svg"
   xmlns="http://www.w3.org/2000/svg"
   xmlns:sodipodi="http://sodipodi.sourceforge.net/DTD/sodipodi-0.dtd"
   xmlns:inkscape="http://www.inkscape.org/namespaces/inkscape"
   id="svg11037"
   height="96"
   width="96"
   version="1.1"
   inkscape:version="0.48.5 r10040"
   sodipodi:docname="camera.svg">
  <sodipodi:namedview
     pagecolor="#ffffff"
     bordercolor="#666666"
     borderopacity="1"
     objecttolerance="10"
     gridtolerance="10"
     guidetolerance="10"
     inkscape:pageopacity="0"
     inkscape:pageshadow="2"
     inkscape:window-width="1366"
     inkscape:window-height="713"
     id="namedview15"
     showgrid="false"
     inkscape:zoom="4"
     inkscape:cx="33.954797"
     inkscape:cy="48.289537"
     inkscape:window-x="0"
     inkscape:window-y="24"
     inkscape:window-maximized="1"
     inkscape:current-layer="layer1"
     showguides="true"
     inkscape:guide-bbox="true" />
  <defs
     id="defs11039">
    <linearGradient
       id="linearGradient11642"
       y2="1046.1"
       gradientUnits="userSpaceOnUse"
       y1="962.62"
       gradientTransform="matrix(1.15 0 0 1.15 -7.1999 -150.65)"
       x2="48"
       x1="48"
       osb:paint="gradient">
      <stop
         id="stop3624"
         style="stop-color:#d6d6d6"
         offset="0" />
      <stop
         id="stop3626"
         style="stop-color:#eaeaea"
         offset="1" />
    </linearGradient>
    <clipPath
       id="clipPath3009"
       clipPathUnits="userSpaceOnUse">
      <path
         id="path3011"
         style="opacity:.15;fill:#fff"
         d="m-2 956.36h-96v33.562l96 25.687v-59.25z" />
    </clipPath>
  </defs>
  <metadata
     id="metadata11042">
    <rdf:RDF>
      <cc:Work
         rdf:about="">
        <dc:format>image/svg+xml</dc:format>
        <dc:type
           rdf:resource="http://purl.org/dc/dcmitype/StillImage" />
        <dc:title></dc:title>
      </cc:Work>
    </rdf:RDF>
  </metadata>
  <g
     id="layer1"
     transform="translate(0 -956.36)">
    <rect
       id="rect3867"
       style="fill:#7f8c8d"
       rx="25"
       ry="25"
       height="92"
       width="92"
       y="958.36"
       x="2" />
    <g
       id="g4016"
       style="fill:#ecf0f1">
      <circle
         style="fill:#ecf0f1;fill-opacity:1"
         d="m 30.4,24 c 0,3.534622 -2.865378,6.4 -6.4,6.4 -3.534622,0 -6.4,-2.865378 -6.4,-6.4 0,-3.534622 2.865378,-6.4 6.4,-6.4 3.534622,0 6.4,2.865378 6.4,6.4 z"
         sodipodi:ry="6.4000001"
         sodipodi:rx="6.4000001"
         sodipodi:cy="24"
         sodipodi:cx="24"
         cx="24"
         cy="24"
         r="6.4000001"
         id="circle3967"
         transform="matrix(1.6666667,0,0,1.6666667,8,966.27666)" />
      <path
         style="fill:#ecf0f1;fill-opacity:1"
         inkscape:connector-curvature="0"
         d="M 38,972.94333 31.9,979.61 H 21.333334 c -3.683334,0 -6.666667,2.98333 -6.666667,6.66666 v 40.00004 c 0,3.6833 2.983333,6.6666 6.666667,6.6666 h 53.333333 c 3.683333,0 6.666667,-2.9833 6.666667,-6.6666 v -40.00004 c 0,-3.68333 -2.983334,-6.66666 -6.666667,-6.66666 H 64.1 L 58,972.94333 H 38 z m 10,49.99997 c -9.2,0 -16.666666,-7.4666 -16.666666,-16.6666 C 31.333334,997.07666 38.8,989.61 48,989.61 c 9.2,0 16.666667,7.46666 16.666667,16.6667 0,9.2 -7.466667,16.6666 -16.666667,16.6666 z"
         id="path3969" />
    </g>
  </g>
</svg>
