<?xml version="1.0" encoding="UTF-8" standalone="no"?>
<!-- Created with Inkscape (http://www.inkscape.org/) -->

<svg
   xmlns:dc="http://purl.org/dc/elements/1.1/"
   xmlns:cc="http://creativecommons.org/ns#"
   xmlns:rdf="http://www.w3.org/1999/02/22-rdf-syntax-ns#"
   xmlns:svg="http://www.w3.org/2000/svg"
   xmlns="http://www.w3.org/2000/svg"
   xmlns:sodipodi="http://sodipodi.sourceforge.net/DTD/sodipodi-0.dtd"
   xmlns:inkscape="http://www.inkscape.org/namespaces/inkscape"
   id="svg11037"
   height="96"
   width="96"
   version="1.1"
   inkscape:version="0.48.5 r10040"
   sodipodi:docname="phone.svg">
  <sodipodi:namedview
     pagecolor="#ffffff"
     bordercolor="#666666"
     borderopacity="1"
     objecttolerance="10"
     gridtolerance="10"
     guidetolerance="10"
     inkscape:pageopacity="0"
     inkscape:pageshadow="2"
     inkscape:window-width="1366"
     inkscape:window-height="713"
     id="namedview15"
     showgrid="false"
     inkscape:zoom="3.4766083"
     inkscape:cx="33.656019"
     inkscape:cy="46.048768"
     inkscape:window-x="0"
     inkscape:window-y="24"
     inkscape:window-maximized="1"
     inkscape:current-layer="layer1"
     showguides="true"
     inkscape:guide-bbox="true" />
  <defs
     id="defs11039">
    <linearGradient
       id="linearGradient11642"
       y2="1046.1"
       gradientUnits="userSpaceOnUse"
       y1="962.62"
       gradientTransform="matrix(1.15 0 0 1.15 -7.1999 -150.65)"
       x2="48"
       x1="48">
      <stop
         id="stop3624"
         style="stop-color:#d6d6d6"
         offset="0" />
      <stop
         id="stop3626"
         style="stop-color:#eaeaea"
         offset="1" />
    </linearGradient>
    <clipPath
       id="clipPath3009"
       clipPathUnits="userSpaceOnUse">
      <path
         id="path3011"
         style="opacity:.15;fill:#fff"
         d="m-2 956.36h-96v33.562l96 25.687v-59.25z" />
    </clipPath>
  </defs>
  <metadata
     id="metadata11042">
    <rdf:RDF>
      <cc:Work
         rdf:about="">
        <dc:format>image/svg+xml</dc:format>
        <dc:type
           rdf:resource="http://purl.org/dc/dcmitype/StillImage" />
        <dc:title />
      </cc:Work>
    </rdf:RDF>
  </metadata>
  <g
     id="layer1"
     transform="translate(0 -956.36)">
    <rect
       id="rect3867"
       style="fill:#2ecc71"
       rx="25"
       ry="25"
       height="92"
       width="92"
       y="958.36"
       x="2" />
    <path
       id="path3026"
       d="m 77.868759,1020.8491 c -0.169985,-0.5116 -1.249521,-1.2648 -3.238609,-2.2585 -0.538721,-0.3129 -1.306532,-0.7385 -2.299767,-1.2783 -0.994806,-0.5399 -1.897035,-1.0372 -2.706164,-1.4923 -0.810175,-0.4539 -1.570139,-0.8948 -2.279893,-1.32 -0.113498,-0.085 -0.468636,-0.3337 -1.065414,-0.7459 -0.596779,-0.4117 -1.100458,-0.7171 -1.51313,-0.9163 -0.411626,-0.1987 -0.816451,-0.2982 -1.214478,-0.2982 -0.568011,0 -1.277766,0.4048 -2.129783,1.2145 -0.852018,0.8097 -1.633427,1.6899 -2.343179,2.6424 -0.710276,0.9518 -1.462919,1.8321 -2.257926,2.6417 -0.795531,0.8102 -1.449319,1.2146 -1.960321,1.2146 -0.255762,0 -0.575857,-0.072 -0.959239,-0.2124 -0.382858,-0.1416 -0.674187,-0.2636 -0.873985,-0.3619 -0.198229,-0.1001 -0.538722,-0.2982 -1.022003,-0.5974 -0.483804,-0.2981 -0.753165,-0.4617 -0.809652,-0.4905 -3.891875,-2.1591 -7.22986,-4.6309 -10.013955,-7.4145 -2.783571,-2.784 -5.255417,-6.1221 -7.41449,-10.0139 -0.02824,-0.057 -0.191952,-0.3269 -0.490081,-0.8097 -0.298648,-0.4833 -0.4974,-0.8237 -0.596777,-1.023 -0.09937,-0.1987 -0.220195,-0.49006 -0.361937,-0.87344 -0.141741,-0.38339 -0.212874,-0.70296 -0.212874,-0.95872 0,-0.51101 0.404827,-1.16479 1.214477,-1.96032 0.809653,-0.79501 1.690437,-1.54817 2.64183,-2.25793 0.951917,-0.70975 1.83218,-1.49117 2.641831,-2.34318 0.809653,-0.85254 1.214479,-1.5623 1.214479,-2.1303 0,-0.39751 -0.09938,-0.80286 -0.298128,-1.21449 -0.198752,-0.41267 -0.504202,-0.91635 -0.916351,-1.51313 -0.412148,-0.59678 -0.660588,-0.95138 -0.745842,-1.06541 -0.425748,-0.70976 -0.865617,-1.46972 -1.320653,-2.27936 -0.455039,-0.80967 -0.951917,-1.71189 -1.491685,-2.70617 -0.539769,-0.99376 -0.965516,-1.76105 -1.278289,-2.30082 -0.994281,-1.98804 -1.746922,-3.06809 -2.258446,-3.23808 -0.198753,-0.0852 -0.497403,-0.12815 -0.894908,-0.12815 -0.767286,0 -1.768368,0.14175 -3.004291,0.42627 -1.235918,0.28401 -2.208759,0.58214 -2.919033,0.89492 -1.420556,0.59625 -2.925838,2.32905 -4.516896,5.19788 C 18.724399,983.54915 18,986.19149 18,988.80508 c 0,0.76624 0.04968,1.51208 0.149065,2.23701 0.09938,0.7244 0.277206,1.54136 0.532968,2.4504 0.255762,0.90902 0.461839,1.58426 0.617701,2.02412 0.155862,0.43987 0.447193,1.22809 0.873463,2.36463 0.425743,1.13656 0.681504,1.83216 0.766759,2.08796 0.994286,2.7841 2.173197,5.2695 3.53674,7.4573 2.243278,3.6361 5.304579,7.3935 9.182331,11.2713 3.877753,3.8778 7.634686,6.9391 11.271321,9.1834 2.187316,1.363 4.673807,2.5425 7.457379,3.5373 0.255762,0.085 0.951917,0.3405 2.08794,0.7672 1.136024,0.4258 1.924755,0.7172 2.364624,0.8735 0.43987,0.1564 1.115103,0.3625 2.023608,0.6182 0.910074,0.2558 1.726526,0.4337 2.450924,0.5336 0.724398,0.098 1.470241,0.149 2.237005,0.149 2.613063,0 5.255416,-0.7249 7.926014,-2.1732 2.868302,-1.5911 4.601104,-3.0968 5.197883,-4.518 0.313296,-0.7092 0.610901,-1.6825 0.894907,-2.9184 0.284528,-1.2354 0.426271,-2.2365 0.426271,-3.0038 5.22e-4,-0.3991 -0.04237,-0.6972 -0.128144,-0.8975 z"
       inkscape:connector-curvature="0"
       style="fill:#ffffff" />
  </g>
</svg>
