<?xml version="1.0" encoding="UTF-8" standalone="no"?>
<!-- Created with Inkscape (http://www.inkscape.org/) -->

<svg
   xmlns:dc="http://purl.org/dc/elements/1.1/"
   xmlns:cc="http://creativecommons.org/ns#"
   xmlns:rdf="http://www.w3.org/1999/02/22-rdf-syntax-ns#"
   xmlns:svg="http://www.w3.org/2000/svg"
   xmlns="http://www.w3.org/2000/svg"
   xmlns:xlink="http://www.w3.org/1999/xlink"
   xmlns:sodipodi="http://sodipodi.sourceforge.net/DTD/sodipodi-0.dtd"
   xmlns:inkscape="http://www.inkscape.org/namespaces/inkscape"
   id="svg11037"
   height="96"
   width="96"
   version="1.1"
   inkscape:version="0.48.5 r10040"
   sodipodi:docname="voice-dialer.svg">
  <sodipodi:namedview
     pagecolor="#ffffff"
     bordercolor="#666666"
     borderopacity="1"
     objecttolerance="10"
     gridtolerance="10"
     guidetolerance="10"
     inkscape:pageopacity="0"
     inkscape:pageshadow="2"
     inkscape:window-width="1366"
     inkscape:window-height="713"
     id="namedview15"
     showgrid="false"
     inkscape:zoom="4.9166666"
     inkscape:cx="42.266225"
     inkscape:cy="54.65754"
     inkscape:window-x="0"
     inkscape:window-y="24"
     inkscape:window-maximized="1"
     inkscape:current-layer="layer1" />
  <defs
     id="defs11039">
    <linearGradient
       id="linearGradient11642"
       y2="1046.1"
       gradientUnits="userSpaceOnUse"
       y1="962.62"
       gradientTransform="matrix(1.15 0 0 1.15 -7.1999 -150.65)"
       x2="48"
       x1="48">
      <stop
         id="stop3624"
         style="stop-color:#d6d6d6"
         offset="0" />
      <stop
         id="stop3626"
         style="stop-color:#eaeaea"
         offset="1" />
    </linearGradient>
    <clipPath
       id="clipPath3009"
       clipPathUnits="userSpaceOnUse">
      <path
         id="path3011"
         style="opacity:.15;fill:#fff"
         d="m-2 956.36h-96v33.562l96 25.687v-59.25z" />
    </clipPath>
    <clipPath
       clipPathUnits="userSpaceOnUse"
       id="clipPath3028">
      <rect
         id="rect3030"
         style="fill:url(#linearGradient3032)"
         rx="22.826881"
         ry="22.826881"
         height="84.002922"
         width="84.002922"
         y="5.1953845"
         x="6.0001826" />
    </clipPath>
    <linearGradient
       inkscape:collect="always"
       xlink:href="#linearGradient11642"
       id="linearGradient3032"
       gradientUnits="userSpaceOnUse"
       gradientTransform="matrix(1.0500365,0,0,1.0500365,-2.4000183,-1007.4142)"
       x1="48"
       y1="962.62"
       x2="48"
       y2="1046.1" />
  </defs>
  <metadata
     id="metadata11042">
    <rdf:RDF>
      <cc:Work
         rdf:about="">
        <dc:format>image/svg+xml</dc:format>
        <dc:type
           rdf:resource="http://purl.org/dc/dcmitype/StillImage" />
        <dc:title></dc:title>
      </cc:Work>
    </rdf:RDF>
  </metadata>
  <g
     id="layer1"
     transform="translate(0 -956.36)">
    <rect
       x="2"
       y="958.36"
       width="92"
       height="92"
       ry="25"
       rx="25"
       style="fill:url(#linearGradient11642)"
       id="rect3020" />
    <g
       id="layer4"
       transform="matrix(1.0952,0,0,1.0952,-4.5714,952.67)"
       style="fill:#8e44ad"
       clip-path="url(#clipPath3028)">
      <path
         inkscape:connector-curvature="0"
         id="path2909"
         style="text-indent:0;text-transform:none;block-progression:tb;color:#000000;fill:#8e44ad;fill-opacity:0.45045004000000000"
         d="m 15.031,75.876518 c -0.32238,0 -0.52759,-0.19113 -0.65625,-0.34375 -0.12866,-0.15262 -0.23925,-0.31093 -0.3125,-0.5 -0.1465,-0.37814 -0.24426,-0.8515 -0.34375,-1.4688 -0.19897,-1.2345 -0.32959,-2.9614 -0.4375,-5.0312 -0.21582,-4.1397 -0.30414,-9.656 -0.375,-15.156 -0.07086,-5.5003 -0.11798,-10.982 -0.3125,-15.094 -0.09727,-2.0557 -0.23163,-3.795 -0.40625,-4.9688 -0.0701,-0.47116 -0.14002,-0.75796 -0.21875,-1.0312 -0.03807,0.09335 -0.0569,0.12821 -0.09375,0.25 -0.18284,0.60422 -0.34896,1.5131 -0.46875,2.625 -0.239,2.224 -0.337,5.22 -0.437,8.219 -0.101,2.999 -0.222,6.011 -0.407,8.281 -0.092,1.135 -0.179,2.082 -0.343,2.782 -0.082,0.349 -0.177,0.63 -0.3128,0.874 -0.0678,0.123 -0.1515,0.237 -0.2812,0.344 -0.1297,0.108 -0.3305,0.219 -0.5625,0.219 -0.28134,0 -0.50942,-0.1554 -0.625,-0.28125 -0.11559,-0.12585 -0.19136,-0.23541 -0.25,-0.375 -0.11728,-0.27918 -0.1759,-0.63542 -0.25,-1.0625 -0.1482,-0.85415 -0.26314,-2.0237 -0.34375,-3.4375 -0.1612,-2.828 -0.2218,-6.596 -0.3125,-10.344 -0.0906,-3.748 -0.2111,-7.492 -0.4687,-10.281 -0.1288,-1.395 -0.2955,-2.539 -0.5,-3.313 -0.0648,-0.245 -0.1521,-0.374 -0.2187,-0.531 -0.0309,0.089 -0.0608,0.18 -0.0938,0.281 v -1.656 c 0.020881,-0.0014 0.041181,0 0.0625,0 0.23983,0 0.44124,0.104 0.59375,0.21875 0.15251,0.11476 0.28541,0.23004 0.375,0.375 0.1792,0.29 0.2916,0.66 0.4063,1.093 0.2293,0.868 0.4003,2.051 0.5313,3.469 0.2619,2.836 0.3779,6.592 0.4687,10.344 0.0908,3.752 0.153,7.484 0.3125,10.281 0.0797,1.399 0.176,2.558 0.3125,3.344 0.014489,0.08344 0.015926,0.11275 0.03125,0.1875 0.13914,-0.61307 0.22406,-1.5047 0.3125,-2.5938 0.1811,-2.2299 0.30551,-5.2486 0.40625,-8.25 0.10073,-3.0014 0.19227,-6.005 0.4375,-8.2812 0.12261,-1.1381 0.28567,-2.073 0.5,-2.7812 0.10716,-0.35414 0.23129,-0.65799 0.40625,-0.90625 0.17496,-0.24826 0.4795,-0.5 0.90625,-0.5 0.3339,0 0.56723,0.19093 0.6875,0.34375 0.12027,0.15282 0.1823,0.31217 0.25,0.5 0.13539,0.37566 0.22081,0.85248 0.3125,1.4688 0.18338,1.2325 0.3396,2.962 0.4375,5.0312 0.1958,4.1386 0.24165,9.6565 0.3125,15.156 0.07085,5.4997 0.16072,10.983 0.375,15.094 0.10715,2.0552 0.24864,3.7657 0.4375,4.9375 0.05848,0.36281 0.09125,0.56396 0.15625,0.8125 0.0571,-0.21038 0.13482,-0.36313 0.1875,-0.65625 0.19059,-1.0605 0.31991,-2.6017 0.4375,-4.4688 0.23519,-3.7342 0.37305,-8.7195 0.46875,-13.719 0.0957,-4.9993 0.18791,-10.019 0.375,-13.781 0.09354,-1.8813 0.18041,-3.4408 0.34375,-4.5625 0.08167,-0.56084 0.19317,-0.99952 0.3125,-1.3438 0.05967,-0.17212 0.14117,-0.3241 0.25,-0.46875 0.10882,-0.14465 0.28767,-0.34375 0.625,-0.34375 0.35603,0 0.67222,0.17755 0.84375,0.375 0.17153,0.19745 0.27623,0.42486 0.375,0.6875 0.19754,0.52528 0.35594,1.2187 0.46875,2.0312 0.22562,1.6251 0.29063,3.7497 0.40625,5.875 0.11562,2.1253 0.23015,4.2487 0.4375,5.8125 0.10368,0.78192 0.26006,1.4377 0.40625,1.8438 0.04871,-0.15774 0.11092,-0.26685 0.15625,-0.5 0.15333,-0.78866 0.25544,-1.9681 0.34375,-3.375 0.17663,-2.8138 0.26296,-6.5777 0.34375,-10.344 0.0808,-3.766 0.13562,-7.5197 0.375,-10.344 0.11969,-1.412 0.31362,-2.5858 0.53125,-3.4375 0.10881,-0.42584 0.19754,-0.7788 0.375,-1.0625 0.08873,-0.14185 0.21262,-0.263 0.375,-0.375 0.16238,-0.112 0.41638,-0.20953 0.65625,-0.1875 0.29896,0.02746 0.4923,0.19233 0.625,0.34375 0.13271,0.15142 0.2316,0.30869 0.3125,0.5 0.1618,0.38262 0.26376,0.88802 0.375,1.5 0.22247,1.224 0.40831,2.9124 0.53125,4.9375 0.24589,4.0503 0.30414,9.3973 0.375,14.75 0.07086,5.3527 0.14766,10.714 0.3125,14.719 0.08242,2.0026 0.19068,3.6616 0.34375,4.8125 0.01448,0.10887 0.01594,0.15054 0.03125,0.25 0.0192,-0.12512 0.07582,-0.17233 0.09375,-0.3125 0.15667,-1.2257 0.26251,-3.0041 0.34375,-5.1562 0.16248,-4.3044 0.18901,-10.077 0.25,-15.844 0.06098,-5.7666 0.16299,-11.542 0.40625,-15.875 0.12163,-2.1664 0.27438,-3.9633 0.5,-5.25 0.11281,-0.64337 0.2395,-1.1701 0.40625,-1.5625 0.08336,-0.19618 0.16619,-0.34497 0.3125,-0.5 0.14631,-0.15503 0.40404,-0.32616 0.71875,-0.3125 0.26239,0.01139 0.50561,0.11704 0.65625,0.25 0.15064,0.13296 0.25415,0.30071 0.34375,0.46875 0.17919,0.33609 0.29095,0.76345 0.40625,1.2812 0.2306,1.0356 0.41368,2.4553 0.53125,4.1562 0.23515,3.4019 0.26649,7.8818 0.3125,12.375 0.04601,4.4932 0.0867,8.9949 0.25,12.344 0.08165,1.6744 0.21224,3.0545 0.375,4 0.06386,0.37098 0.08562,0.60171 0.15625,0.8125 0.03539,-0.07282 0.08999,-0.08959 0.125,-0.1875 0.17293,-0.48338 0.32445,-1.2392 0.4375,-2.1562 0.2261,-1.8342 0.34681,-4.3213 0.4375,-6.8125 0.0907,-2.4912 0.15093,-4.9995 0.34375,-6.9062 0.09641,-0.95336 0.22601,-1.7362 0.40625,-2.3438 0.09012,-0.30376 0.1582,-0.55823 0.3125,-0.78125 0.1543,-0.22302 0.45038,-0.47735 0.84375,-0.5 0.28327,-0.01631 0.52267,0.11896 0.65625,0.25 0.13358,0.13104 0.21088,0.28476 0.28125,0.4375 0.14074,0.30549 0.21888,0.67787 0.3125,1.1562 0.18723,0.95676 0.35566,2.2759 0.46875,3.875 0.22618,3.1983 0.32686,7.4605 0.4375,11.719 0.11064,4.2582 0.23336,8.5052 0.4375,11.688 0.10207,1.5912 0.24668,2.9433 0.40625,3.8438 0.01279,0.07221 0.01795,0.08954 0.03125,0.15625 0.0247,-0.1237 0.03938,-0.16905 0.0625,-0.3125 0.16192,-1.0042 0.30825,-2.4824 0.40625,-4.25 0.196,-3.5351 0.27898,-8.2602 0.375,-13 0.09602,-4.7398 0.21048,-9.5074 0.4375,-13.094 0.11351,-1.7932 0.21156,-3.2914 0.40625,-4.375 0.09735,-0.54181 0.23314,-0.9703 0.375,-1.3125 0.07093,-0.1711 0.12824,-0.32777 0.25,-0.46875 0.12176,-0.14098 0.36028,-0.29103 0.65625,-0.3125 0.38727,-0.02809 0.71749,0.18135 0.90625,0.40625 0.18876,0.2249 0.33476,0.50265 0.4375,0.8125 0.20548,0.6197 0.30707,1.4177 0.40625,2.4062 0.19837,1.9772 0.25252,4.5936 0.3125,7.2188 0.05996,2.6251 0.10629,5.2586 0.3125,7.2188 0.10311,0.98006 0.2614,1.8118 0.4375,2.3438 0.08805,0.26596 0.17877,0.43978 0.25,0.53125 0.01781,0.02287 0.02278,0.02076 0.03125,0.03125 0.0078,-0.0052 0.01684,0.0094 0.03125,0 0.03601,-0.02358 0.11221,-0.09155 0.1875,-0.21875 0.15057,-0.25441 0.30358,-0.70243 0.40625,-1.2812 0.20534,-1.1576 0.25958,-2.7714 0.3125,-4.4062 0.05292,-1.6349 0.11893,-3.2836 0.3125,-4.5625 0.09677,-0.63944 0.18321,-1.184 0.40625,-1.625 0.11152,-0.22051 0.26451,-0.42974 0.46875,-0.59375 0.20424,-0.16401 0.50961,-0.28125 0.8125,-0.28125 0.22746,0 0.41887,0.07971 0.5625,0.1875 0.14363,0.10779 0.26365,0.24394 0.34375,0.375 0.16019,0.26211 0.24769,0.55826 0.34375,0.9375 0.19213,0.75848 0.33713,1.8011 0.4375,3.0312 0.20074,2.4604 0.2697,5.7191 0.34375,8.9688 0.07406,3.2497 0.13292,6.493 0.34375,8.9062 0.10541,1.2066 0.26014,2.2136 0.4375,2.875 0.03592,0.13398 0.0871,0.17789 0.125,0.28125 0.07115,-0.23835 0.12263,-0.45594 0.1875,-0.84375 0.17756,-1.0616 0.30283,-2.6325 0.40625,-4.5 0.20683,-3.735 0.32516,-8.7188 0.40625,-13.719 0.08109,-5 0.13525,-10.016 0.34375,-13.781 0.10425,-1.8825 0.24918,-3.4366 0.4375,-4.5625 0.09416,-0.56296 0.2038,-1.0251 0.34375,-1.375 0.06997,-0.17495 0.12416,-0.32392 0.25,-0.46875 0.12584,-0.14482 0.37711,-0.3125 0.6875,-0.3125 0.36247,0 0.5997,0.21133 0.71875,0.375 0.11905,0.16367 0.17912,0.35284 0.25,0.5625 0.14176,0.41932 0.27329,0.95275 0.375,1.6562 0.204,1.406 0.349,3.41 0.47,5.78 0.241,4.74 0.31,11.03 0.406,17.312 0.096,6.283 0.193,12.534 0.375,17.188 0.091,2.327 0.222,4.253 0.375,5.562 0.0298,-0.1533 0.06984,-0.26289 0.09375,-0.46875 0.17381,-1.497 0.32585,-3.6417 0.4375,-6.1875 0.2233,-5.0916 0.3523,-11.835 0.46875,-18.562 0.11644,-6.7275 0.22782,-13.416 0.4375,-18.438 0.10484,-2.5109 0.23846,-4.6217 0.40625,-6.0938 0.0839,-0.73603 0.16752,-1.2938 0.28125,-1.7188 0.05687,-0.21248 0.12199,-0.39857 0.21875,-0.5625 0.04838,-0.08196 0.10657,-0.16333 0.21875,-0.25 0.11218,-0.08667 0.31726,-0.17524 0.53125,-0.15625 0.29268,0.02598 0.45291,0.18029 0.5625,0.3125 0.10959,0.13221 0.21869,0.28256 0.28125,0.4375 0.12512,0.30988 0.19421,0.70296 0.28125,1.1875 0.17408,0.96907 0.32789,2.3074 0.4375,3.9062 0.21922,3.1977 0.31424,7.428 0.4375,11.656 0.12326,4.2283 0.25155,8.4586 0.46875,11.625 0.10861,1.5832 0.24346,2.8761 0.40625,3.7812 0.04213,0.23425 0.11129,0.35788 0.15625,0.53125 0.13592,-0.48054 0.22515,-1.1654 0.3125,-2.0312 0.18563,-1.8399 0.28684,-4.3314 0.375,-6.8438 0.08817,-2.5123 0.20316,-5.0485 0.4375,-6.9688 0.11717,-0.96012 0.25092,-1.7632 0.46875,-2.375 0.10891,-0.30588 0.25102,-0.55929 0.4375,-0.78125 0.18648,-0.22196 0.49296,-0.4375 0.875,-0.4375 0.44205,0 0.76022,0.26728 0.9375,0.53125 0.17728,0.26396 0.26866,0.58754 0.375,0.96875 0.21268,0.76242 0.3585,1.7998 0.46875,3.0312 0.22049,2.4629 0.30796,5.7181 0.375,8.9688 0.06704,3.2506 0.12419,6.4915 0.3125,8.9062 0.09415,1.2074 0.20964,2.2117 0.375,2.875 0.04079,0.16366 0.05062,0.22634 0.09375,0.34375 0.06364,-0.18176 0.12839,-0.33656 0.1875,-0.625 0.17668,-0.86214 0.34042,-2.1501 0.4375,-3.6875 0.19416,-3.0748 0.22125,-7.1873 0.28125,-11.312 0.06,-4.1252 0.16422,-8.2612 0.375,-11.375 0.10539,-1.5569 0.23296,-2.8683 0.4375,-3.8125 0.10227,-0.47212 0.21237,-0.84697 0.375,-1.1562 0.08132,-0.15464 0.16706,-0.27964 0.3125,-0.40625 0.14544,-0.12661 0.36613,-0.25 0.625,-0.25 0.27564,0 0.51062,0.11372 0.65625,0.25 0.14562,0.13628 0.2616,0.30066 0.34375,0.46875 0.16429,0.33619 0.26951,0.75574 0.375,1.2812 0.21098,1.051 0.36092,2.5063 0.46875,4.25 0.21565,3.4875 0.29094,8.1246 0.34375,12.75 0.0528,4.6254 0.09546,9.2356 0.28125,12.688 0.09289,1.726 0.23054,3.1808 0.40625,4.1562 0.05921,0.32863 0.12208,0.50868 0.1875,0.71875 0.04568,-0.12663 0.08186,-0.20173 0.125,-0.375 0.17907,-0.71917 0.33194,-1.7925 0.4375,-3.0938 0.21112,-2.6025 0.30094,-6.094 0.375,-9.5938 0.07405,-3.4997 0.11202,-7.01 0.3125,-9.6562 0.10025,-1.3231 0.24693,-2.4398 0.4375,-3.25 0.09529,-0.40509 0.18782,-0.72524 0.34375,-1 0.07797,-0.13738 0.17083,-0.2605 0.3125,-0.375 0.14167,-0.1145 0.35445,-0.21875 0.59375,-0.21875 0.35137,0 0.66288,0.17782 0.84375,0.375 0.18087,0.19718 0.30186,0.42353 0.40625,0.6875 0.20877,0.52795 0.35197,1.2177 0.46875,2.0312 0.23355,1.6271 0.35948,3.749 0.46875,5.875 0.10928,2.126 0.17807,4.2481 0.375,5.8125 0.09847,0.78218 0.23275,1.4374 0.375,1.8438 0.01561,0.0446 0.0153,0.05539 0.03125,0.09375 0.04082,-0.09732 0.11578,-0.14073 0.15625,-0.28125 0.15892,-0.55172 0.26892,-1.3872 0.375,-2.4062 0.21215,-2.038 0.32828,-4.8125 0.4375,-7.5625 0.10922,-2.75 0.22026,-5.4755 0.4375,-7.5625 0.10863,-1.0435 0.21862,-1.9423 0.40625,-2.5938 0.09382,-0.3257 0.18756,-0.5796 0.34375,-0.8125 0.15619,-0.2329 0.45394,-0.5 0.875,-0.5 0.24413,0 0.48782,0.10356 0.625,0.21875 0.13718,0.11519 0.20591,0.23878 0.28125,0.375 0.15067,0.27244 0.2795,0.59594 0.375,1 0.19101,0.80812 0.32666,1.9273 0.4375,3.25 0.22168,2.6454 0.30406,6.156 0.40625,9.6562 0.1022,3.5003 0.20185,6.9879 0.40625,9.5938 0.1022,1.3029 0.24486,2.3687 0.40625,3.0938 0.01281,0.05756 0.01794,0.07204 0.03125,0.125 0.03862,-0.16776 0.05883,-0.25311 0.09375,-0.46875 0.15848,-0.97872 0.29175,-2.4294 0.375,-4.1562 0.16652,-3.4538 0.22124,-8.0614 0.28125,-12.688 0.06,-4.6261 0.1361,-9.2615 0.375,-12.75 0.11945,-1.7443 0.2747,-3.1975 0.5,-4.25 0.11264,-0.52626 0.23274,-0.94394 0.40625,-1.2812 0.08676,-0.16866 0.19304,-0.33403 0.34375,-0.46875 0.15072,-0.13472 0.3848,-0.25 0.65625,-0.25 v 1.3438 c -0.09,0.216 -0.201,0.459 -0.283,0.844 -0.208,0.971 -0.351,2.401 -0.469,4.126 -0.236,3.448 -0.315,8.063 -0.375,12.687 -0.06,4.6239 -0.1133,9.2663 -0.28125,12.75 -0.08397,1.7419 -0.20583,3.174 -0.375,4.2188 -0.08458,0.52236 -0.18041,0.95177 -0.3125,1.2812 -0.066,0.16474 -0.12644,0.29761 -0.25,0.4375 -0.123,0.139 -0.356,0.312 -0.656,0.312 -0.24984,0 -0.46167,-0.10173 -0.59375,-0.21875 -0.13208,-0.11702 -0.24164,-0.27077 -0.3125,-0.40625 -0.14172,-0.27095 -0.22278,-0.59692 -0.3125,-1 -0.17944,-0.80617 -0.30254,-1.8967 -0.40625,-3.2188 -0.20741,-2.6442 -0.30407,-6.1565 -0.40625,-9.6562 -0.10218,-3.4997 -0.18799,-6.9892 -0.40625,-9.5938 -0.10912,-1.3023 -0.26658,-2.3706 -0.4375,-3.0938 -0.04793,-0.20278 -0.10638,-0.29847 -0.15625,-0.4375 -0.02696,0.07321 -0.03652,0.09727 -0.0625,0.1875 -0.159,0.552 -0.3,1.388 -0.406,2.407 -0.212,2.038 -0.328,4.781 -0.438,7.531 -0.109,2.75 -0.22,5.507 -0.437,7.594 -0.109,1.043 -0.187,1.942 -0.375,2.593 -0.094,0.326 -0.219,0.58 -0.375,0.813 -0.15619,0.2329 -0.45394,0.5 -0.875,0.5 -0.36096,0 -0.6189,-0.20789 -0.78125,-0.40625 -0.16235,-0.19836 -0.2834,-0.42584 -0.375,-0.6875 -0.1832,-0.52332 -0.33533,-1.1884 -0.4375,-2 -0.20433,-1.6231 -0.26583,-3.751 -0.375,-5.875 -0.10917,-2.124 -0.24478,-4.2521 -0.46875,-5.8125 -0.11199,-0.78019 -0.24738,-1.442 -0.40625,-1.8438 -0.03442,-0.08704 -0.09151,-0.09474 -0.125,-0.15625 -0.0648,0.15062 -0.09209,0.32094 -0.15625,0.59375 -0.1696,0.72106 -0.30762,1.7919 -0.40625,3.0938 -0.19727,2.6038 -0.23843,6.0935 -0.3125,9.5938 -0.07406,3.5003 -0.16024,7.0087 -0.375,9.6562 -0.10737,1.3238 -0.26655,2.4379 -0.46875,3.25 -0.1011,0.40604 -0.21016,0.72412 -0.375,1 -0.08242,0.13794 -0.16634,0.26253 -0.3125,0.375 -0.146,0.112 -0.39,0.218 -0.625,0.218 -0.28598,0 -0.48988,-0.14272 -0.625,-0.28125 -0.13512,-0.13852 -0.23856,-0.30215 -0.3125,-0.46875 -0.14788,-0.33321 -0.24937,-0.72602 -0.34375,-1.25 -0.18876,-1.048 -0.31245,-2.5072 -0.40625,-4.25 -0.1876,-3.4856 -0.22845,-8.1254 -0.28125,-12.75 -0.0528,-4.6246 -0.1304,-9.2375 -0.34375,-12.688 -0.10667,-1.725 -0.27355,-3.1526 -0.46875,-4.125 -0.073,-0.361 -0.14,-0.598 -0.219,-0.812 -0.066,0.181 -0.125,0.338 -0.188,0.625 -0.186,0.86 -0.302,2.151 -0.406,3.687 -0.208,3.074 -0.315,7.188 -0.375,11.313 -0.06,4.125 -0.084,8.262 -0.281,11.375 -0.098,1.556 -0.244,2.839 -0.438,3.781 -0.096,0.472 -0.189,0.849 -0.343,1.157 -0.077,0.153 -0.172,0.309 -0.313,0.437 -0.14,0.128 -0.392,0.25 -0.656,0.25 -0.22745,0 -0.4189,-0.07939 -0.5625,-0.1875 -0.1436,-0.10811 -0.23286,-0.24379 -0.3125,-0.375 -0.15928,-0.26242 -0.28045,-0.55824 -0.375,-0.9375 -0.18909,-0.75853 -0.31032,-1.8011 -0.40625,-3.0312 -0.19186,-2.4602 -0.24548,-5.7194 -0.3125,-8.9688 -0.067,-3.2494 -0.15906,-6.4942 -0.375,-8.9062 -0.10797,-1.206 -0.25354,-2.2155 -0.4375,-2.875 -0.07587,-0.27196 -0.17813,-0.43024 -0.25,-0.5625 -0.05677,0.09188 -0.06168,0.16595 -0.125,0.34375 -0.17486,0.49106 -0.3554,1.2587 -0.46875,2.1875 -0.2267,1.8577 -0.31817,4.3963 -0.40625,6.9062 -0.08808,2.51 -0.18397,5.0129 -0.375,6.9062 -0.09551,0.9467 -0.19284,1.7212 -0.375,2.3125 -0.09107,0.29566 -0.2082,0.56344 -0.375,0.78125 -0.1668,0.21781 -0.51448,0.43918 -0.90625,0.40625 -0.29299,-0.02463 -0.45248,-0.18033 -0.5625,-0.3125 -0.11003,-0.13217 -0.18737,-0.28273 -0.25,-0.4375 -0.12526,-0.30955 -0.22543,-0.70338 -0.3125,-1.1875 -0.17413,-0.96825 -0.29662,-2.308 -0.40625,-3.9062 -0.21926,-3.1965 -0.31424,-7.428 -0.4375,-11.656 -0.12326,-4.2283 -0.25159,-8.4261 -0.46875,-11.594 -0.10506,-1.5324 -0.28187,-2.7848 -0.4375,-3.6875 -0.031,0.21 -0.034,0.312 -0.063,0.563 -0.163,1.43 -0.302,3.53 -0.406,6.032 -0.209,5.002 -0.321,11.709 -0.438,18.437 -0.116,6.728 -0.244,13.482 -0.468,18.594 -0.113,2.555 -0.259,4.68 -0.438,6.219 -0.089,0.769 -0.163,1.384 -0.281,1.843 -0.059,0.23 -0.132,0.424 -0.219,0.594 -0.0872,0.16969 -0.21471,0.37317 -0.59375,0.46875 -0.18566,0.04681 -0.39055,0.01666 -0.53125,-0.0625 -0.1407,-0.07916 -0.22556,-0.1696 -0.28125,-0.25 -0.11138,-0.1608 -0.16189,-0.30486 -0.21875,-0.5 -0.11373,-0.39027 -0.2018,-0.94694 -0.28125,-1.625 -0.1589,-1.3561 -0.28357,-3.288 -0.375,-5.625 -0.18286,-4.674 -0.27907,-10.938 -0.375,-17.219 -0.09594,-6.2809 -0.16661,-12.567 -0.40625,-17.281 -0.11982,-2.3571 -0.27314,-4.3345 -0.46875,-5.6875 -0.06126,-0.42376 -0.15092,-0.64512 -0.21875,-0.9375 -0.0416,0.17948 -0.08684,0.27183 -0.125,0.5 -0.17756,1.0616 -0.30283,2.6325 -0.40625,4.5 -0.20684,3.735 -0.29391,8.7188 -0.375,13.719 -0.08109,5 -0.1665,10.016 -0.375,13.781 -0.10425,1.8825 -0.24918,3.4366 -0.4375,4.5625 -0.09416,0.56296 -0.17255,1.0251 -0.3125,1.375 -0.06997,0.17495 -0.12416,0.32392 -0.25,0.46875 -0.12583,0.14482 -0.37711,0.3125 -0.6875,0.3125 -0.44786,0 -0.73703,-0.29952 -0.90625,-0.5625 -0.16922,-0.26298 -0.3043,-0.55728 -0.40625,-0.9375 -0.2039,-0.76044 -0.36122,-1.8004 -0.46875,-3.0312 -0.21506,-2.4617 -0.26968,-5.7184 -0.34375,-8.9688 -0.07406,-3.2503 -0.14674,-6.4916 -0.34375,-8.9062 -0.0985,-1.2073 -0.20696,-2.2116 -0.375,-2.875 -0.072,-0.285 -0.15,-0.46 -0.218,-0.592 -0.033,0.043 -0.088,0.051 -0.125,0.125 -0.141,0.279 -0.254,0.782 -0.344,1.375 -0.18,1.187 -0.259,2.831 -0.312,4.469 -0.054,1.637 -0.089,3.268 -0.313,4.531 -0.112,0.632 -0.276,1.162 -0.531,1.594 -0.128,0.216 -0.303,0.412 -0.532,0.562 -0.228,0.15 -0.51,0.239 -0.812,0.219 -0.38751,-0.02575 -0.69202,-0.26503 -0.875,-0.5 -0.18298,-0.23497 -0.33007,-0.48801 -0.4375,-0.8125 -0.21486,-0.64898 -0.33118,-1.5206 -0.4375,-2.5312 -0.21265,-2.0213 -0.28376,-4.6554 -0.34375,-7.2812 -0.05999,-2.6258 -0.12018,-5.2394 -0.3125,-7.1562 -0.09616,-0.95843 -0.21066,-1.7544 -0.375,-2.25 -0.02669,-0.0805 -0.0661,-0.09281 -0.09375,-0.15625 -0.082,0.236 -0.174,0.512 -0.25,0.937 -0.183,1.018 -0.325,2.504 -0.437,4.281 -0.226,3.555 -0.311,8.293 -0.407,13.032 -0.096,4.738 -0.208,9.467 -0.406,13.031 -0.099,1.781 -0.203,3.278 -0.375,4.343 -0.086,0.533 -0.186,0.95 -0.312,1.282 -0.064,0.166 -0.134,0.328 -0.25,0.468 -0.117,0.141 -0.342,0.313 -0.657,0.313 -0.29713,0 -0.53806,-0.14827 -0.65625,-0.28125 -0.11819,-0.13298 -0.18657,-0.28398 -0.25,-0.4375 -0.12685,-0.30704 -0.19571,-0.70482 -0.28125,-1.1875 -0.17108,-0.96536 -0.30321,-2.3 -0.40625,-3.9062 -0.20607,-3.2124 -0.32688,-7.4612 -0.4375,-11.719 -0.11063,-4.2575 -0.21369,-8.5226 -0.4375,-11.688 -0.11191,-1.5824 -0.23299,-2.8959 -0.40625,-3.7812 -0.04724,-0.24142 -0.10608,-0.36044 -0.15625,-0.53125 -0.0095,0.02884 -0.02208,0.03155 -0.03125,0.0625 -0.14919,0.50286 -0.28122,1.2602 -0.375,2.1875 -0.18756,1.8547 -0.25297,4.3502 -0.34375,6.8438 -0.09078,2.4936 -0.20368,4.9782 -0.4375,6.875 -0.11692,0.94841 -0.2526,1.7396 -0.46875,2.3438 -0.10808,0.30209 -0.25226,0.5615 -0.4375,0.78125 -0.18524,0.21976 -0.49544,0.4375 -0.875,0.4375 -0.28581,0 -0.52536,-0.1441 -0.65625,-0.28125 -0.13089,-0.13714 -0.21125,-0.27519 -0.28125,-0.4375 -0.14001,-0.32463 -0.22498,-0.74158 -0.3125,-1.25 -0.17504,-1.0168 -0.29256,-2.4343 -0.375,-4.125 -0.16488,-3.3814 -0.20402,-7.8528 -0.25,-12.344 -0.04599,-4.491 -0.08026,-8.9838 -0.3125,-12.344 -0.11613,-1.68 -0.31962,-3.0808 -0.53125,-4.0312 -0.08391,-0.37686 -0.16022,-0.63128 -0.25,-0.84375 -0.101,0.278 -0.22,0.658 -0.312,1.185 -0.214,1.219 -0.348,3.006 -0.469,5.156 -0.241,4.301 -0.345,10.048 -0.406,15.813 -0.061,5.765 -0.087,11.547 -0.25,15.875 -0.082,2.164 -0.18,3.94 -0.344,5.219 -0.081,0.639 -0.221,1.149 -0.343,1.531 -0.062,0.191 -0.106,0.375 -0.219,0.531 -0.113,0.156 -0.36,0.365 -0.719,0.344 -0.34564,-0.0199 -0.55178,-0.22468 -0.65625,-0.375 -0.10447,-0.15032 -0.15931,-0.31613 -0.21875,-0.5 -0.11887,-0.36773 -0.20115,-0.83525 -0.28125,-1.4375 -0.1602,-1.2045 -0.26083,-2.8916 -0.34375,-4.9062 -0.16583,-4.0293 -0.24166,-9.3682 -0.3125,-14.719 -0.07084,-5.3505 -0.13114,-10.702 -0.375,-14.719 -0.12193,-2.0084 -0.32114,-3.6878 -0.53125,-4.8438 -0.095,-0.522 -0.177,-0.912 -0.281,-1.186 -0.063,0.149 -0.126,0.258 -0.188,0.5 -0.193,0.756 -0.35,1.923 -0.468,3.312 -0.236,2.779 -0.295,6.518 -0.375,10.281 -0.081,3.764 -0.165,7.558 -0.344,10.407 -0.089,1.424 -0.207,2.604 -0.375,3.468 -0.084,0.432 -0.178,0.778 -0.312,1.063 -0.068,0.142 -0.154,0.282 -0.282,0.406 -0.12789,0.12436 -0.35979,0.25 -0.625,0.25 -0.35982,0 -0.64759,-0.20847 -0.8125,-0.40625 -0.16491,-0.19778 -0.28074,-0.42569 -0.375,-0.6875 -0.18851,-0.52362 -0.26736,-1.1882 -0.375,-2 -0.21529,-1.6237 -0.38441,-3.7503 -0.5,-5.875 -0.11559,-2.1247 -0.18933,-4.2501 -0.40625,-5.8125 -0.10101,-0.72764 -0.23532,-1.3118 -0.375,-1.7188 -0.056,0.233 -0.136,0.43 -0.187,0.781 -0.155,1.066 -0.251,2.632 -0.344,4.5 -0.186,3.738 -0.279,8.718 -0.375,13.719 -0.095,5.001 -0.231,10.015 -0.469,13.781 -0.118,1.883 -0.266,3.436 -0.468,4.563 -0.102,0.563 -0.196,1.024 -0.344,1.375 -0.074,0.175 -0.151,0.325 -0.281,0.468 -0.131,0.144 -0.383,0.313 -0.688,0.313 z" />
    </g>
  </g>
</svg>
